<svg id="Capa_1" enable-background="new 0 0 512 512" viewBox="0 0 512 512" xmlns="http://www.w3.org/2000/svg">
    <path
        d="m512 228.847c0 16.077-20.254 29.277-24.217 44.105-4.101 15.342 6.719 36.877-1.053 50.31-7.883 13.625-32.017 14.974-43.075 26.032s-12.406 35.191-26.032 43.075c-13.432 7.771-34.968-3.048-50.309 1.053-14.827 3.963-28.028 24.217-44.105 24.217s-29.277-20.254-44.105-24.217c-15.342-4.101-36.877 6.719-50.31-1.053-13.625-7.883-14.974-32.017-26.032-43.075s-35.191-12.406-43.075-26.032c-7.771-13.432 3.048-34.968-1.053-50.309-3.963-14.827-24.217-28.028-24.217-44.105s20.254-29.277 24.217-44.105c4.101-15.342-6.719-36.877 1.053-50.31 7.883-13.625 32.017-14.974 43.075-26.032s12.406-35.191 26.032-43.075c13.432-7.771 34.968 3.048 50.309-1.053 14.827-3.963 28.028-24.217 44.105-24.217s29.277 20.254 44.105 24.217c15.342 4.101 36.877-6.719 50.31 1.053 13.625 7.883 14.974 32.017 26.032 43.075s35.191 12.406 43.074 26.032c7.771 13.432-3.048 34.968 1.053 50.309 3.964 14.828 24.218 28.028 24.218 44.105z"
        fill="#fedf30"></path>
    <path
        d="m486.734 323.259c-7.888 13.628-32.018 14.977-43.079 26.037-11.06 11.051-12.409 35.19-26.028 43.069-13.432 7.777-34.967-3.042-50.316 1.051-14.828 3.963-28.028 24.223-44.102 24.223-8.437 0-16.074-5.581-23.581-11.451h.028c12.986 0 22.846-11.628 32.763-18.419 10.939-7.488 23.879-11.535 37.042-12.577 12.056-.958 24.558 4.558 35.637-3.163 7.042-4.911 10.921-14.074 13.181-21.702 2.214-7.507 4.605-15.311 11.972-19.302 11.414-6.195 29.33-7.972 35.144-21.386 6.056-13.972-2.177-27.293-2.13-41.181.046-14.372 12.53-22.419 19.246-33.544 4.539-7.525 4.753-12.828 2.577-18.669-1.126-3.033-2.893-6.205-5.023-9.907-3.461-6.009-7.888-11.405-11.507-17.321-12.809-20.893 7.442-47.618-4.298-67.906-.419-.726-.884-1.414-1.395-2.074 9.619 3.86 19.377 7.637 23.87 15.395 7.767 13.432-3.051 34.967 1.051 50.307 3.963 14.828 24.214 28.028 24.214 44.111 0 16.074-20.251 29.274-24.214 44.102-4.103 15.34 6.716 36.874-1.052 50.307z"
        fill="#f4d01e"></path>
    <circle cx="323.21" cy="228.847" fill="#fea613" r="131.992"></circle>
    <path
        d="m272.423 471.943c35.5 0 64.808-28.86 64.098-64.353-.685-34.238-28.653-61.781-63.054-61.781-1.784 0-3.55.078-5.295.227-2.7.231-5.001-1.866-4.999-4.576 0-.018 0-.035 0-.053 0-50.628-41.042-91.67-91.67-91.67-47.191 0-86.046 35.66-91.105 81.503-.272 2.462-2.505 4.226-4.969 3.975-2.265-.231-4.562-.353-6.888-.353-32.903 0-60.39 23.184-67.019 54.107-9.178 42.819 24.373 82.975 68.164 82.975h202.737z"
        fill="#99e6fc"></path>
    <path
        d="m336.522 407.593c.549 27.618-17.07 51.218-41.646 60.325 9.656-11.256 15.414-25.879 15.088-41.842-.679-34.232-28.651-61.776-63.051-61.776-1.765 0-3.512.073-5.231.218-2.717.23-5.067-1.862-5.067-4.589v-.029c0-50.632-41.041-91.674-91.664-91.674-13.656 0-26.604 2.986-38.242 8.344 16.577-16.586 39.488-26.837 64.79-26.837 50.632 0 91.674 41.041 91.674 91.674v.056c0 2.688 2.296 4.798 4.973 4.569 1.756-.15 3.531-.225 5.324-.225 34.401 0 62.363 27.545 63.052 61.786z"
        fill="#62dbfb"></path>
</svg>